PathFileType	4	(X/Y/Z)	C:\Users\dbl\Desktop\20210112\20210112\bx_n_0_1801.trc
DataRate	CameraRate	NumFrames	NumMarkers	Units	OrigDataRate	OrigDataStartFrame	OrigNumFrames
50.00	50.00	       6	43	mm	50.00	149	       397
Frame#	Time	Top.Head			R.Acromium			L.Acromium			Sternum			R.ASIS			L.ASIS			V.Sacral			R.Thigh.Upper			R.Thigh.Front			R.Thigh.Rear			R.Knee.Lat			R.Knee.Med			R.Shank.Upper			R.Shank.Front			R.Shank.Rear			R.Ankle.Lat			R.Midfoot.Lat			R.Toe.Lat			R.Toe.Tip			R.Toe.Med			R.Ankle.Med			R.Midfoot.Sup			R.Heel			L.Thigh.Upper			L.Thigh.Front			L.Thigh.Rear			L.Knee.Lat			L.Knee.Med			L.Shank.Upper			L.Shank.Front			L.Shank.Rear			L.Ankle.Lat			L.Midfoot.Lat			L.Toe.Lat			L.Toe.Tip			L.Toe.Med			L.Ankle.Med			L.Midfoot.Sup			L.Heel			origin1 front left			origin2 front right			origin 3 back right			origin 4 back leftt			
		X1	Y1	Z1	X2	Y2	Z2	X3	Y3	Z3	X4	Y4	Z4	X5	Y5	Z5	X6	Y6	Z6	X7	Y7	Z7	X8	Y8	Z8	X9	Y9	Z9	X10	Y10	Z10	X11	Y11	Z11	X12	Y12	Z12	X13	Y13	Z13	X14	Y14	Z14	X15	Y15	Z15	X16	Y16	Z16	X17	Y17	Z17	X18	Y18	Z18	X19	Y19	Z19	X20	Y20	Z20	X21	Y21	Z21	X22	Y22	Z22	X23	Y23	Z23	X24	Y24	Z24	X25	Y25	Z25	X26	Y26	Z26	X27	Y27	Z27	X28	Y28	Z28	X29	Y29	Z29	X30	Y30	Z30	X31	Y31	Z31	X32	Y32	Z32	X33	Y33	Z33	X34	Y34	Z34	X35	Y35	Z35	X36	Y36	Z36	X37	Y37	Z37	X38	Y38	Z38	X39	Y39	Z39	X40	Y40	Z40	X41	Y41	Z41	X42	Y42	Z42	X43	Y43	Z43	

149	2.960	-475.09576	109.17165	1623.00928	-556.78009	-74.11055	1333.06360	-574.62622	279.81094	1340.29395	-581.85510	98.43562	1126.16418	-763.70325	-8.35259	907.40686	-764.27075	233.92822	917.20105	-956.20227	91.97826	963.52936	-782.34448	-89.07225	790.75494	-666.86206	-33.60499	788.40186	-713.34302	-86.67212	695.15912	-626.30353	-63.97043	582.80347	-584.38232	44.22309	558.03583	-616.80542	-63.65185	540.39734	-572.15558	-16.73025	487.22198	-678.30304	-63.53015	473.06699	-752.60736	-20.44323	207.83658	-651.04559	-72.00010	157.97894	-609.56873	-79.62852	154.60851	-554.38739	-39.19016	168.08566	-599.39490	19.07265	174.35521	-707.58691	66.34077	213.72682	-672.34479	51.21735	162.36684	-790.33496	41.19981	177.28813	-796.28394	285.20386	773.28473	-653.04663	237.05400	779.64197	-696.62543	285.29465	677.42737	-653.00110	272.04248	586.18726	-561.90497	163.42618	558.52948	-606.52930	265.84058	544.81622	-553.81476	224.01279	500.93787	-658.31519	269.59589	483.11975	-756.84332	228.14705	206.47536	-654.47693	294.26370	153.80695	-618.59509	303.20511	156.79529	-553.81610	252.58636	165.99731	-588.81226	216.02252	178.51520	-700.65442	154.09892	211.60051	-673.80237	169.41957	159.53871	-790.91589	177.15550	188.58089	-528.15582	304.17642	146.57704	-517.83679	-72.71446	143.25133	-875.98755	-78.74273	141.50146	-882.51312	296.10129	144.69424	
150	2.980	-471.01105	109.28703	1611.70154	-553.60126	-73.44653	1322.18396	-571.43634	280.28131	1329.72571	-581.18988	99.20446	1115.53699	-766.07086	-7.87528	900.21680	-766.74146	234.38191	910.04846	-959.00964	92.34279	957.31750	-783.55231	-88.55704	786.17389	-668.25226	-32.32709	785.83441	-712.75781	-85.91118	692.04773	-623.61798	-63.03142	581.25183	-582.09851	45.43816	557.18573	-613.65759	-62.73355	539.17065	-569.57806	-15.56166	485.92093	-675.52118	-62.98783	472.25366	-751.98877	-19.92008	207.91162	-650.86804	-71.80601	158.19218	-609.56140	-79.52802	154.86487	-554.15472	-39.09978	168.48422	-599.19293	19.42100	173.71942	-707.29108	67.01731	213.50597	-672.15582	51.62045	161.67036	-790.00067	41.60063	177.41808	-798.10156	285.62057	768.36304	-654.71198	237.46347	777.18762	-696.59467	285.77823	674.38721	-651.36328	272.45990	584.75037	-559.56342	163.92740	557.67999	-604.31134	266.70081	543.58502	-551.47150	224.62727	499.84109	-656.24048	270.12299	482.11386	-756.50378	227.91985	206.40230	-654.56000	294.31351	153.72609	-618.57135	303.31467	156.75249	-553.76849	252.63638	165.96106	-588.81293	215.96458	178.44359	-700.30072	153.81122	211.53632	-673.79852	169.19342	159.41203	-790.79694	176.88629	188.65172	-528.16901	304.18103	146.56720	-517.85095	-72.72217	143.17110	-876.00543	-78.74735	141.50772	-882.48718	296.11023	144.70811	
151	3.000	-467.12466	109.52742	1600.33374	-550.49585	-72.70556	1311.29211	-568.39240	280.72961	1318.93677	-580.57111	99.90834	1104.86658	-768.28394	-7.28614	892.82434	-769.01013	234.84917	902.82800	-961.43262	92.71790	950.89471	-784.60223	-87.90540	781.53131	-669.58356	-30.91784	783.20288	-712.11151	-85.10382	689.01678	-620.98492	-61.91981	579.75513	-579.82806	46.80847	556.39392	-610.52081	-61.69735	537.99554	-567.05743	-14.42814	484.62488	-672.81421	-62.30949	471.53909	-751.36676	-19.45519	207.99031	-650.63165	-71.55476	158.44600	-609.52979	-79.38387	155.25900	-553.88568	-38.89270	168.80714	-598.99084	19.74904	173.12685	-706.81403	67.54081	213.22855	-671.97394	51.98309	161.02119	-789.70148	41.90678	177.55600	-799.83832	286.00116	763.27826	-656.36694	237.95555	774.63416	-696.52692	286.34381	671.24670	-649.75165	272.86264	583.33514	-557.23291	164.47223	556.81342	-602.04926	267.62469	542.36237	-549.11871	225.23416	498.76489	-654.16913	270.62189	481.04272	-756.18109	227.65564	206.33484	-654.61871	294.34714	153.68399	-618.60828	303.41107	156.68970	-553.69598	252.68497	165.92500	-588.80481	215.92026	178.35962	-699.93469	153.59206	211.32004	-673.71661	168.91075	159.26328	-790.67169	176.56480	188.70544	-528.16919	304.14435	146.57013	-517.86401	-72.74055	143.12845	-876.01636	-78.75278	141.49771	-882.47461	296.13477	144.72081	
152	3.020	-463.44199	109.88457	1588.95959	-547.47510	-71.93069	1300.38049	-565.43713	281.21432	1308.10205	-579.93634	100.55079	1094.21851	-770.42181	-6.50286	885.26135	-771.12518	235.27365	895.49097	-963.56494	93.14107	944.33972	-785.62146	-87.11367	776.85431	-670.95087	-29.38033	780.55475	-711.48077	-84.17822	686.05896	-618.45508	-60.64085	578.31683	-577.61353	48.40773	555.66699	-607.48071	-60.48510	536.88721	-564.59570	-13.07496	483.39328	-670.20203	-61.43303	470.89606	-750.75256	-18.99440	208.06699	-650.40015	-71.27925	158.76251	-609.52527	-79.17542	155.78735	-553.64948	-38.60204	169.05524	-598.76727	20.07964	172.56711	-706.26636	68.01048	212.82881	-671.76544	52.31308	160.51573	-789.47693	42.20120	177.67548	-801.53357	286.33438	758.05359	-658.01868	238.49219	771.99329	-696.46576	286.99680	667.99609	-648.16620	273.25085	581.94165	-554.96503	164.99506	555.88403	-599.68860	268.59717	541.22546	-546.77924	225.74982	497.70599	-652.09253	271.09482	479.93204	-755.94116	227.42116	206.33763	-654.64362	294.34311	153.69507	-618.67737	303.47867	156.62262	-553.58014	252.71782	165.89769	-588.75433	215.89119	178.25499	-699.57721	153.48833	210.89853	-673.48920	168.66591	159.11024	-790.49744	176.20325	188.73538	-528.16119	304.11005	146.58957	-517.87262	-72.78317	143.13275	-876.01233	-78.75981	141.46956	-882.48370	296.16412	144.72659	
153	3.040	-459.94037	110.34969	1577.63147	-544.56116	-71.16301	1289.48071	-562.52869	281.78122	1297.33081	-579.23022	101.15958	1083.66040	-772.52325	-5.57171	877.64587	-773.14435	235.63287	888.09839	-965.60150	93.71035	937.72266	-786.72675	-86.26552	772.19159	-672.42450	-27.74767	777.94653	-710.93787	-83.10173	683.12897	-616.05176	-59.22878	576.90106	-575.50092	50.17714	554.94263	-604.62604	-59.09893	535.82446	-562.20563	-11.39673	482.25793	-667.70490	-60.35006	470.27734	-750.20764	-18.47755	208.16180	-650.17590	-70.97251	159.16841	-609.58020	-78.89698	156.39073	-553.45691	-38.27035	169.23203	-598.51837	20.42482	172.03607	-705.77258	68.52137	212.28970	-671.53925	52.60429	160.13274	-789.31421	42.57467	177.75081	-803.15674	286.69412	752.85956	-659.65234	238.97510	769.33844	-696.38489	287.69592	664.77112	-646.60693	273.62466	580.56989	-552.81287	165.35477	554.92743	-597.27429	269.53748	540.24597	-544.53595	226.09001	496.63751	-650.05524	271.52673	478.84079	-755.80896	227.22049	206.39658	-654.64136	294.29477	153.77650	-618.74799	303.50269	156.59610	-553.44293	252.72710	165.88370	-588.65576	215.86157	178.12357	-699.20203	153.42825	210.39630	-673.20752	168.50801	158.93503	-790.26367	175.82043	188.75818	-528.15942	304.12308	146.62207	-517.87640	-72.82866	143.16615	-875.99323	-78.75687	141.44073	-882.49414	296.18445	144.72717	
154	3.060	-456.57169	110.92695	1566.37659	-541.76563	-70.45102	1278.66040	-559.61658	282.38644	1286.60669	-578.46399	101.74376	1073.21399	-774.59259	-4.58934	870.11011	-775.10828	235.97252	880.77332	-967.63849	94.43460	931.14404	-787.94904	-85.42522	767.59558	-673.97705	-26.06594	775.38464	-710.51813	-81.89694	680.17230	-613.80957	-57.73663	575.49677	-573.52563	52.00455	554.17078	-601.99841	-57.63174	534.79181	-559.93292	-9.49482	481.19220	-665.32056	-59.13505	469.64755	-749.76166	-17.88261	208.27315	-649.93567	-70.59770	159.66817	-609.68524	-78.54010	156.99762	-553.27258	-37.92152	169.33479	-598.24316	20.76167	171.53154	-705.40900	69.14458	211.68796	-671.33514	52.84958	159.70825	-789.16937	43.05455	177.78618	-804.67224	287.13705	747.85590	-661.29425	239.28796	766.74347	-696.27338	288.34534	661.71753	-645.07385	273.98413	579.21979	-550.85864	165.47650	554.03369	-594.97455	270.26208	539.39178	-542.47491	226.20183	495.57159	-648.12549	271.87085	477.84769	-755.74872	227.01031	206.46037	-654.63147	294.19666	153.95090	-618.81995	303.47107	156.65016	-553.32983	252.71761	165.87614	-588.54309	215.81184	177.96838	-698.85779	153.30647	209.98259	-673.04474	168.40297	158.70477	-790.01392	175.44940	188.80728	-528.16669	304.18005	146.66194	-517.88086	-72.84452	143.19704	-875.96661	-78.74039	141.42485	-882.48438	296.18732	144.72723	
